<?xml version="1.0" encoding="utf-8"?>
<!-- Svg Vector Icons : http://www.onlinewebfonts.com/icon -->
<!DOCTYPE svg PUBLIC "-//W3C//DTD SVG 1.1//EN" "http://www.w3.org/Graphics/SVG/1.1/DTD/svg11.dtd">
<svg version="1.1" xmlns="http://www.w3.org/2000/svg" xmlns:xlink="http://www.w3.org/1999/xlink" x="0px" y="0px" viewBox="0 0 1000 1000" enable-background="new 0 0 1000 1000" xml:space="preserve">
<metadata> Svg Vector Icons : http://www.onlinewebfonts.com/icon </metadata>
<g><path d="M784.5,867.7v0.3c-5.7,0.3-11.5,0.7-17.2,1v32.5c0,21,17.9,37.9,39.9,37.9H889c22,0,39.9-17,39.9-37.9v-70.8c-15,11.5-32.8,19.6-52.2,23.3C847.4,862.2,816.4,866.9,784.5,867.7z M248.1,868.1c-31.9-0.8-62.7-5.5-92.1-13.8c-19.4-3.5-37.1-11.7-52.1-23.2v70.6c0,20.9,17.9,37.8,39.9,37.8h81.7c22,0,39.9-16.9,39.9-37.8v-32.4c-5.7-0.3-11.5-0.7-17.2-1V868.1z M971.8,376.7h-70.2c-20.5-41.9-41.8-83.3-64-124.3l-0.7,0.1c-19-35.1-51.9-61.7-91.4-72.6l-0.6-0.8c-7.6-2.8-13.2-9.9-13.6-18.3l-1.5-2l-0.3-0.6c-1.4-10.2-3.3-20.3-5.6-30.2l0.3-0.1c-8.7-38.5-43.3-67.2-84.9-67.2l0,0H531.5l0,0H394.9l0,0c-41.5,0-76.2,28.8-84.9,67.2l0.4,0.1c-2.4,9.9-4.3,19.9-5.7,30.2l-0.3,0.6l-1.5,2c-0.5,8.4-6,15.5-13.6,18.3l-0.6,0.8c-39.6,11-72.6,37.5-91.4,72.6l-0.6,0c-22.1,40.9-43.4,82.4-64,124.3H62.4v0.2C33.3,377.6,10,401,10,429.8c0,27.6,21.4,50.3,48.8,52.8c0,0,0.6,0.1,1,0.1c4.1,0,8.7,0,10.2,3.7c0.7,1.9,1.1,4,0.1,5.5c-9.6,12.5-16.3,27.2-19.1,43.3l-0.4-0.1c-4.2,24.4-6.4,49.4-6.4,75c0,56.8,10.9,111.1,30.7,161c0.1,0,0.2,0,0.3-0.1c14.7,37.9,48.5,66.5,89.8,74.2c28.8,8.1,59.1,12.8,90.4,13.5v0.2c71.5,4.5,143.6,7.1,216.2,7.7c20.1,0.3,40.2,0.5,60.4,0.5c82.9,0,165.2-2.6,246.8-7.8v-0.2c31.3-0.8,61.5-5.4,90.3-13.6c41.3-7.7,75.2-36.2,89.8-74.2c0.1,0,0.2,0,0.3,0.1c19.8-49.9,30.7-104.2,30.7-161c0-25.6-2.2-50.6-6.5-75l-0.3,0.1c-2.8-16.1-9.5-30.9-19.1-43.3c-1-1.5-0.7-3.7,0.1-5.5 M189.2,391.1c14.5-38.5,33.4-85.6,54.2-123.8c20-30.7,43.2-42.8,68.4-48.3c101.9-14,223.8-16.9,332-8.8c0,0,0.1,0.1,0.1,0.1c1.5,0.2,4.3,0.3,8.3,0.6c8.5,0.7,16.8,1.4,25,2.2c4.7,0.6,9.7,1.3,14.9,2.2c10.3,1.1,20.4,2.4,30.4,3.8c25.2,5.5,48.4,17.6,68.4,48.4c20.7,38.2,39.7,85.3,54.2,123.8c2.6,9.4,2.2,18.5-9.7,22.5c-4.1,2.6-10.5,4.2-20.1,4.2c-70.1-2.1-136.3-7.5-299-7.5c-140.6,0-241.6,3.5-294.7,5.4c-0.6-0.1-1.4-0.1-2.3-0.1C187.7,416.7,185.5,404.3,189.2,391.1z M187.6,663.2c-38.9,0-70.5-31.2-70.5-69.7c0-38.5,31.6-69.7,70.5-69.7c38.9,0,70.5,31.2,70.5,69.7C258.1,631.9,226.5,663.2,187.6,663.2z M695.3,678.1c-19.5,25.3-45.2,43.6-74.1,51.7c-0.2,0.1-0.5,0.2-0.5,0.2c-33.6,8.5-68.4,13-104.2,13h-0.1c-35.7,0-70.6-4.5-104.2-13c0,0-0.2-0.1-0.5-0.2c-29-8.1-54.7-26.5-74.2-51.7l0.1-0.1c-3.5-5-5.7-13.2-5.7-20.2c0-15,9.8-25.6,22.2-26.7v-0.3h324.6v0.3c12.4,1.1,22.2,13.4,22.2,28.4C700.9,666.7,698.8,673.1,695.3,678.1L695.3,678.1z M844.1,664.3c-38.9,0-70.5-31.2-70.5-69.7c0-38.5,31.5-69.7,70.5-69.7c38.9,0,70.4,31.2,70.4,69.7C914.5,633.1,882.9,664.3,844.1,664.3z"/></g>
</svg>