<?xml version="1.0" encoding="iso-8859-1"?>
<!-- Generator: Adobe Illustrator 19.0.0, SVG Export Plug-In . SVG Version: 6.00 Build 0)  -->
<svg version="1.1" id="Layer_1" xmlns="http://www.w3.org/2000/svg" xmlns:xlink="http://www.w3.org/1999/xlink" x="0px" y="0px"
	 viewBox="0 0 512 512" style="enable-background:new 0 0 512 512;" xml:space="preserve">
<circle style="fill:#F9D026;" cx="256" cy="256.001" r="239.29"/>
<path style="fill:#E7C224;" d="M410.805,438.465C365.787,476.658,310.747,495.301,256,495.274V16.727
	c67.805,0.033,135.16,28.715,182.464,84.469C523.96,201.968,511.577,352.969,410.805,438.465z"/>
<path style="fill:#444242;" d="M276.922,0.877c68.145,5.588,130.036,37.379,174.271,89.518
	c44.234,52.137,65.518,118.382,59.931,186.527c-5.588,68.147-37.38,130.037-89.519,174.272
	c-52.139,44.234-118.379,65.519-186.528,59.929c-68.145-5.588-130.036-37.379-174.271-89.518l0,0
	C16.572,369.469-4.712,303.226,0.876,235.079c5.588-68.145,37.38-130.037,89.519-174.271
	c46.677-39.602,104.65-60.809,165.183-60.807C262.659,0.001,269.785,0.293,276.922,0.877z M400.004,425.734
	c45.337-38.466,72.981-92.284,77.841-151.541s-13.647-116.86-52.113-162.198C381.762,60.169,319,33.502,255.831,33.508
	c-50.9,0.004-102.072,17.328-143.836,52.76c-45.337,38.466-72.981,92.284-77.841,151.541S47.8,354.669,86.267,400.007
	c43.972,51.828,106.732,78.488,169.901,78.488C307.069,478.495,358.241,461.167,400.004,425.734z"/>
<path style="fill:#3A3839;" d="M511.124,276.924c-5.588,68.147-37.38,130.037-89.519,174.272
	c-46.783,39.691-104.923,60.889-165.606,60.79v-33.493c0.057,0,0.112,0.002,0.168,0.002c50.9,0,102.072-17.328,143.836-52.76
	c45.337-38.466,72.981-92.284,77.841-151.541c4.859-59.257-13.647-116.86-52.113-162.198
	C381.798,60.216,319.11,33.552,255.998,33.51V0.006c6.942,0.011,13.927,0.298,20.923,0.871
	c68.145,5.588,130.036,37.379,174.271,89.518C495.429,142.534,516.712,208.777,511.124,276.924z"/>
<g>
	<circle style="fill:#444242;" cx="256" cy="256.001" r="31.453"/>
	<path style="fill:#444242;" d="M282.856,302.516l64.805,112.246c-26.964,15.602-58.268,24.534-91.66,24.534
		s-64.696-8.934-91.66-24.534l64.798-112.234C245.545,311.999,266.11,312.209,282.856,302.516z"/>
	<path style="fill:#444242;" d="M202.289,256.002H72.68c-0.029-31.152,7.885-62.729,24.582-91.648s40.085-51.562,67.078-67.113
		l64.798,112.233C212.731,218.948,202.268,236.653,202.289,256.002z"/>
	<path style="fill:#444242;" d="M282.856,209.486l64.805-112.245c26.993,15.551,50.382,38.194,67.078,67.113
		s24.611,60.496,24.582,91.648H309.725C309.724,237.057,299.623,219.142,282.856,209.486z"/>
</g>
<g>
	<path style="fill:#3A3839;" d="M282.856,209.486l64.805-112.245c26.993,15.551,50.382,38.194,67.078,67.113
		s24.611,60.496,24.582,91.648H309.725C309.724,237.057,299.623,219.142,282.856,209.486z"/>
	<path style="fill:#3A3839;" d="M276.347,279.983c-5.917,5.02-13.151,7.465-20.346,7.461v-62.887
		c8.912,0.004,17.764,3.769,23.982,11.096C291.219,248.9,289.591,268.746,276.347,279.983z"/>
	<path style="fill:#3A3839;" d="M347.661,414.762c-26.964,15.602-58.268,24.534-91.66,24.534l0,0V309.705
		c9.242,0.002,18.522-2.365,26.855-7.189L347.661,414.762z"/>
</g>
<g>
</g>
<g>
</g>
<g>
</g>
<g>
</g>
<g>
</g>
<g>
</g>
<g>
</g>
<g>
</g>
<g>
</g>
<g>
</g>
<g>
</g>
<g>
</g>
<g>
</g>
<g>
</g>
<g>
</g>
</svg>
